#N canvas 3 22 1366 666 10;
#X obj -10973 -2455 +~;
#X obj -10973 -2497 osc~;
#X obj -10973 -2473 *~;
#X obj -10849 -2515 line~;
#X msg -10859 -2543 \$1 10;
#X obj -10938 -2344 *~;
#X obj -10890 -2344 line~;
#X msg -10890 -2362 \$1 10;
#X obj -10887 -2386 hsl 128 15 0 0.5 0 0 empty empty empty -2 -8 0
10 -204786 -1 -1 12700 1;
#X obj -10932 -2559 nbx 4 14 -1e+37 1e+37 0 1 empty modulator empty
0 -8 0 10 -204800 -1 -1 1 256;
#X obj -10859 -2577 nbx 4 14 0 1e+37 0 1 empty index empty 0 -8 0 10
-204786 -1 -1 1 256;
#X obj -10997 -2559 nbx 4 14 -1e+37 1e+37 0 1 empty carrier empty 0
-8 0 10 -232576 -1 -1 261.63 256;
#X text -10997 -2599 carrier;
#X obj -10938 -2407 osc~;
#X obj -10938 -2289 dac~;
#X obj -10932 -2520 *~;
#X obj -10913 -2497 *~;
#X text -10932 -2599 Harmonicity;
#X obj -10658 -2455 vline~;
#X obj -10772 -2577 bng 15 250 50 0 empty empty empty 17 7 0 10 -262144
-1 -1;
#X obj -10772 -2456 vline~;
#X obj -10838 -2289 *~;
#X obj -10772 -2537 nbx 5 14 -1e+37 1e+37 0 0 empty index empty 0 -8
0 10 -262144 -1 -1 0 256;
#X obj -10604 -2362 nbx 5 14 -1e+37 1e+37 0 0 empty duration empty
0 -8 0 10 -262144 -1 -1 0 256;
#X obj -10772 -2498 pack f f;
#X msg -10759 -2475 \$1 \, 0 \$2;
#X msg -10658 -2497 0.7 10 \, 0 \$1 10;
#X obj -10913 -2455 loadbang;
#X obj -10913 -2413 + 100;
#X msg -11048 -2093 \; carrier 523.25 \; modulator 1 \; index 1 \;
duration 1000;
#X msg -10821 -2093 \; carrier 587.33 \; modulator 1 \; index 1 \;
duration 1000;
#X msg -10599 -2093 \; carrier 659.25 \; modulator 1 \; index 1 \;
duration 1000;
#X msg -10606 -2214 \; carrier 329.63 \; modulator 1 \; index 1 \;
duration 1000;
#X msg -10822 -2218 \; carrier 293.66 \; modulator 1 \; index 1 \;
duration 1000;
#X msg -11049 -2218 \; carrier 261.63 \; modulator 1 \; index 1 \;
duration 1000;
#X obj -10661 -2370 r stop;
#X msg -10652 -2344 0;
#X obj -10210 -2236 r PG1;
#X obj -10225 -2130 r PG2;
#X obj -10023 -2234 r PA1;
#X obj -10030 -2128 r PA2;
#X obj -9827 -2232 r PB1;
#X obj -10750 -2241 r PD1;
#X obj -10534 -2240 r PE1;
#X obj -10539 -2132 r PE2;
#X obj -10768 -2139 r PD2;
#X obj -9835 -2122 r PB2;
#X obj -10867 -2141 r PCs2;
#X obj -10851 -2242 r PCs1;
#X obj -10661 -2138 r PDs2;
#X obj -10643 -2240 r PDs1;
#X obj -10318 -2239 r PFs1;
#X obj -10323 -2131 r PFs2;
#X obj -10125 -2235 r PGs1;
#X obj -10127 -2129 r PGs2;
#X obj -9930 -2231 r PAs1;
#X obj -9937 -2125 r PAs2;
#X msg -10935 -2219 \; carrier 277.18 \; modulator 1 \; index 1 \;
duration 1000;
#X msg -10934 -2094 \; carrier 554.36 \; modulator 1 \; index 1 \;
duration 1000;
#X msg -10715 -2217 \; carrier 311.13 \; modulator 1 \; index 1 \;
duration 1000;
#X msg -10714 -2092 \; carrier 622.26 \; modulator 1 \; index 1 \;
duration 1000;
#X msg -10497 -2213 \; carrier 349.228 \; modulator 1 \; index 1 \;
duration 1000;
#X msg -10490 -2092 \; carrier 698.114 \; modulator 1 \; index 1 \;
duration 1000;
#X msg -10390 -2213 \; carrier 369.994 \; modulator 1 \; index 1 \;
duration 1000;
#X msg -10383 -2092 \; carrier 739.988 \; modulator 1 \; index 1 \;
duration 1000;
#X msg -10283 -2212 \; carrier 391.995 \; modulator 1 \; index 1 \;
duration 1000;
#X msg -10276 -2092 \; carrier 783.99 \; modulator 1 \; index 1 \;
duration 1000;
#X msg -10177 -2212 \; carrier 415.31 \; modulator 1 \; index 1 \;
duration 1000;
#X msg -10074 -2212 \; carrier 440 \; modulator 1 \; index 1 \; duration
1000;
#X msg -10076 -2093 \; carrier 880 \; modulator 1 \; index 1 \; duration
1000;
#X msg -9984 -2211 \; carrier 466.16 \; modulator 1 \; index 1 \; duration
1000;
#X msg -9980 -2093 \; carrier 932.32 \; modulator 1 \; index 1 \; duration
1000;
#X msg -9885 -2208 \; carrier 493.88 \; modulator 1 \; index 1 \; duration
1000;
#X msg -9877 -2093 \; carrier 987.76 \; modulator 1 \; index 1 \; duration
1000;
#X msg -10176 -2092 \; carrier 830.62 \; modulator 1 \; index 1 \;
duration 1000;
#X obj -10467 -2453 +~;
#X obj -10467 -2495 osc~;
#X obj -10467 -2471 *~;
#X obj -10343 -2513 line~;
#X msg -10353 -2541 \$1 10;
#X obj -10432 -2342 *~;
#X obj -10384 -2342 line~;
#X msg -10384 -2360 \$1 10;
#X obj -10381 -2384 hsl 128 15 0 0.5 0 0 empty empty empty -2 -8 0
10 -204786 -1 -1 12700 1;
#X obj -10426 -2557 nbx 4 14 -1e+37 1e+37 0 1 empty lee empty 0 -8
0 10 -204800 -1 -1 1 256;
#X obj -10353 -2575 nbx 4 14 0 1e+37 0 1 empty dd empty 0 -8 0 10 -204786
-1 -1 6.5 256;
#X obj -10491 -2557 nbx 4 14 -1e+37 1e+37 0 1 empty brent empty 0 -8
0 10 -232576 -1 -1 195.99 256;
#X text -10491 -2597 carrier;
#X obj -10432 -2405 osc~;
#X obj -10426 -2518 *~;
#X obj -10407 -2495 *~;
#X text -10426 -2597 Harmonicity;
#X obj -10152 -2453 vline~;
#X obj -10266 -2575 bng 15 250 50 0 empty empty empty 17 7 0 10 -262144
-1 -1;
#X obj -10266 -2454 vline~;
#X obj -10296 -2350 *~;
#X obj -10266 -2535 nbx 5 14 -1e+37 1e+37 0 0 empty dd empty 0 -8 0
10 -262144 -1 -1 0 256;
#X obj -10098 -2360 nbx 5 14 -1e+37 1e+37 0 0 empty ss empty 0 -8 0
10 -262144 -1 -1 0 256;
#X obj -10266 -2496 pack f f;
#X msg -10253 -2473 \$1 \, 0 \$2;
#X msg -10152 -2495 0.7 10 \, 0 \$1 10;
#X obj -10407 -2453 loadbang;
#X obj -10407 -2411 + 100;
#X obj -10155 -2368 r stop;
#X msg -10146 -2342 0;
#X obj -10530 -2386 hip~ 400;
#X obj -10562 -2309 lop~ 300;
#X obj -10404 -2315 phasor~ 500;
#X obj -10292 -2305 *~ 0.001;
#X obj -10389 -2264 dac~;
#X obj -10337 -1961 r VCs1;
#X obj -10236 -1960 r VD1;
#X obj -10129 -1959 r VDs1;
#X obj -10020 -1959 r VE1;
#X obj -9804 -1958 r VFs1;
#X obj -10353 -1861 r VCs2;
#X obj -10245 -1857 r VD2;
#X obj -10138 -1856 r VDs2;
#X obj -10016 -1850 r VE2;
#X obj -9907 -1849 r VFn2;
#X obj -9800 -1849 r VFs2;
#X obj -10970 -1964 r VG1;
#X obj -10885 -1963 r VGs1;
#X obj -10783 -1962 r VA1;
#X obj -10690 -1959 r VAs1;
#X obj -10587 -1960 r VB1;
#X obj -10973 -1856 r VG2;
#X obj -10888 -1855 r VGs2;
#X obj -10786 -1854 r VA2;
#X obj -10693 -1851 r VAs2;
#X obj -10580 -1852 r VB2;
#X obj -10991 -1751 r VG3;
#X obj -10893 -1750 r VGs3;
#X obj -10796 -1749 r VA3;
#X obj -10702 -1746 r VAs3;
#X obj -10601 -1743 r VB3;
#X obj -10965 -2241 r PC1;
#X obj -10425 -2239 r PF1;
#X msg -11043 -1940 \; brent 195.99 \; lee 1 \; dd 6.5 \; ss 10000
;
#X msg -10937 -1940 \; brent 207.65 \; lee 1 \; dd 6.5 \; ss 10000
;
#X msg -10836 -1940 \; brent 220 \; lee 1 \; dd 6.5 \; ss 10000;
#X msg -10744 -1939 \; brent 233.08 \; lee 1 \; dd 6.5 \; ss 10000
;
#X msg -10645 -1936 \; brent 246.94 \; lee 1 \; dd 6.5 \; ss 10000
;
#X msg -11046 -1832 \; brent 391.98 \; lee 1 \; dd 6.5 \; ss 10000
;
#X msg -10940 -1832 \; brent 415.3 \; lee 1 \; dd 6.5 \; ss 10000;
#X msg -10836 -1832 \; brent 440 \; lee 1 \; dd 6.5 \; ss 10000;
#X msg -10637 -1828 \; brent 493.88 \; lee 1 \; dd 6.5 \; ss 10000
;
#X msg -10745 -1831 \; brent 446.16 \; lee 1 \; dd 6 \; ss 10000;
#X msg -10411 -1829 \; brent 554.36 \; lee 1 \; dd 6 \; ss 10000;
#X msg -10524 -1829 \; brent 523.25 \; lee 1 \; dd 6 \; ss 10000;
#X msg -10298 -1828 \; brent 587.33 \; lee 1 \; dd 6 \; ss 10000;
#X msg -10191 -1827 \; brent 622.26 \; lee 1 \; dd 6 \; ss 10000;
#X msg -10076 -1828 \; brent 659.25 \; lee 1 \; dd 6 \; ss 10000;
#X msg -9966 -1827 \; brent 698.114 \; lee 1 \; dd 6 \; ss 10000;
#X msg -9860 -1827 \; brent 739.988 \; lee 1 \; dd 6 \; ss 10000;
#X msg -10536 -1937 \; brent 261.63 \; lee 1 \; dd 6 \; ss 10000;
#X msg -10308 -1936 \; brent 293.66 \; lee 1 \; dd 6 \; ss 10000;
#X msg -10201 -1936 \; brent 311.13 \; lee 1 \; dd 6 \; ss 10000;
#X msg -10092 -1933 \; brent 329.63 \; lee 1 \; dd 6 \; ss 10000;
#X msg -9983 -1932 \; brent 349.228 \; lee 1 \; dd 6 \; ss 10000;
#X msg -9876 -1932 \; brent 369.994 \; lee 1 \; dd 6 \; ss 10000;
#X msg -10421 -1938 \; brent 277.18 \; lee 1 \; dd 6 \; ss 10000;
#X msg -11043 -1721 \; brent 783.99 \; lee 1 \; dd 5.5 \; ss 10000
;
#X msg -10943 -1721 \; brent 830.62 \; lee 1 \; dd 5.5 \; ss 10000
;
#X msg -10843 -1722 \; brent 880 \; lee 1 \; dd 5.5 \; ss 10000;
#X msg -10747 -1722 \; brent 932.32 \; lee 1 \; dd 5.5 \; ss 10000
;
#X msg -10644 -1722 \; brent 987.76 \; lee 1 \; dd 5.5 \; ss 10000
;
#X obj -10451 -1960 r VC1;
#X obj -9911 -1958 r VF1;
#X obj -10458 -1858 r VC2;
#X obj -10430 -2131 r Pf2;
#X obj -10981 -2140 r Pc2;
#X connect 0 0 13 0;
#X connect 1 0 2 0;
#X connect 2 0 0 1;
#X connect 4 0 3 0;
#X connect 5 0 14 0;
#X connect 5 0 14 1;
#X connect 6 0 21 0;
#X connect 7 0 6 0;
#X connect 8 0 7 0;
#X connect 9 0 15 1;
#X connect 10 0 4 0;
#X connect 11 0 0 0;
#X connect 11 0 15 0;
#X connect 13 0 5 0;
#X connect 15 0 1 0;
#X connect 15 0 16 0;
#X connect 16 0 2 1;
#X connect 18 0 21 1;
#X connect 19 0 22 0;
#X connect 19 0 26 0;
#X connect 20 0 16 1;
#X connect 21 0 5 1;
#X connect 22 0 24 0;
#X connect 23 0 24 1;
#X connect 23 0 26 0;
#X connect 24 0 25 0;
#X connect 25 0 20 0;
#X connect 26 0 18 0;
#X connect 27 0 28 0;
#X connect 28 0 8 0;
#X connect 35 0 36 0;
#X connect 36 0 11 0;
#X connect 36 0 9 0;
#X connect 36 0 10 0;
#X connect 37 0 65 0;
#X connect 38 0 66 0;
#X connect 39 0 68 0;
#X connect 40 0 69 0;
#X connect 41 0 72 0;
#X connect 42 0 33 0;
#X connect 43 0 32 0;
#X connect 44 0 31 0;
#X connect 45 0 30 0;
#X connect 46 0 73 0;
#X connect 47 0 58 0;
#X connect 48 0 57 0;
#X connect 49 0 60 0;
#X connect 50 0 59 0;
#X connect 51 0 63 0;
#X connect 52 0 64 0;
#X connect 53 0 67 0;
#X connect 54 0 74 0;
#X connect 55 0 70 0;
#X connect 56 0 71 0;
#X connect 75 0 88 0;
#X connect 76 0 77 0;
#X connect 77 0 75 1;
#X connect 79 0 78 0;
#X connect 80 0 105 0;
#X connect 81 0 95 0;
#X connect 82 0 81 0;
#X connect 83 0 82 0;
#X connect 84 0 89 1;
#X connect 85 0 79 0;
#X connect 86 0 75 0;
#X connect 86 0 89 0;
#X connect 88 0 80 0;
#X connect 89 0 76 0;
#X connect 89 0 90 0;
#X connect 90 0 77 1;
#X connect 92 0 95 1;
#X connect 93 0 96 0;
#X connect 93 0 100 0;
#X connect 94 0 90 1;
#X connect 95 0 80 1;
#X connect 96 0 98 0;
#X connect 97 0 98 1;
#X connect 97 0 100 0;
#X connect 98 0 99 0;
#X connect 99 0 94 0;
#X connect 100 0 92 0;
#X connect 101 0 102 0;
#X connect 102 0 83 0;
#X connect 103 0 104 0;
#X connect 104 0 86 0;
#X connect 104 0 84 0;
#X connect 104 0 85 0;
#X connect 105 0 106 0;
#X connect 105 0 107 0;
#X connect 106 0 109 0;
#X connect 106 0 109 1;
#X connect 107 0 108 0;
#X connect 108 0 109 0;
#X connect 108 0 109 1;
#X connect 110 0 161 0;
#X connect 111 0 156 0;
#X connect 112 0 157 0;
#X connect 113 0 158 0;
#X connect 114 0 160 0;
#X connect 115 0 148 0;
#X connect 116 0 150 0;
#X connect 117 0 151 0;
#X connect 118 0 152 0;
#X connect 119 0 153 0;
#X connect 120 0 154 0;
#X connect 121 0 138 0;
#X connect 122 0 139 0;
#X connect 123 0 140 0;
#X connect 124 0 141 0;
#X connect 125 0 142 0;
#X connect 126 0 143 0;
#X connect 127 0 144 0;
#X connect 128 0 145 0;
#X connect 129 0 147 0;
#X connect 130 0 146 0;
#X connect 131 0 162 0;
#X connect 132 0 163 0;
#X connect 133 0 164 0;
#X connect 134 0 165 0;
#X connect 135 0 166 0;
#X connect 136 0 34 0;
#X connect 137 0 61 0;
#X connect 167 0 155 0;
#X connect 168 0 159 0;
#X connect 169 0 149 0;
#X connect 170 0 62 0;
#X connect 171 0 29 0;
